<svg width="40" height="40" viewBox="0 0 40 40" fill="none" xmlns="http://www.w3.org/2000/svg">
<g clip-path="url(#clip0_1_2)">
<rect width="40" height="40" fill="black"/>
<path d="M20 39.9668C14.6998 39.9634 9.61745 37.8575 5.86797 34.1114C2.11848 30.3654 0.00814785 25.2849 0 19.9847C0.00814668 14.6842 2.11836 9.60348 5.86778 5.85695C9.61717 2.11042 14.6996 0.00406785 20 0C25.3005 0.00406785 30.3828 2.11042 34.1323 5.85695C37.8815 9.60348 39.992 14.6842 40 19.9847C39.992 25.2849 37.8815 30.3654 34.132 34.1114C30.3826 37.8575 25.3002 39.9634 20 39.9668ZM20 1.53846C15.1074 1.54185 10.4159 3.48591 6.95489 6.94406C3.49385 10.4022 1.54593 15.0921 1.53846 19.9847C1.54322 24.8779 3.49037 29.569 6.95206 33.0274C10.4138 36.4858 15.1068 38.4283 20 38.4283C24.8932 38.4283 29.5863 36.4858 33.048 33.0274C36.5095 29.569 38.4569 24.8779 38.4615 19.9847C38.4542 15.0921 36.5062 10.4022 33.0452 6.94406C29.5841 3.48591 24.8926 1.54185 20 1.53846Z" fill="white"/>
<path d="M22.5286 36.8052C18.1375 36.8018 13.927 35.0566 10.8207 31.9529C7.71449 28.849 5.96622 24.6399 5.95945 20.2487C5.96622 15.8575 7.71449 11.6483 10.8207 8.54446C13.927 5.44065 18.1375 3.69563 22.5286 3.69225C26.9198 3.69563 31.1305 5.44065 34.2366 8.54446C37.3428 11.6483 39.0911 15.8575 39.0978 20.2487C39.0911 24.6399 37.3428 28.849 34.2366 31.9529C31.1305 35.0566 26.9198 36.8018 22.5286 36.8052ZM22.5286 4.88711C18.4546 4.89049 14.5482 6.50972 11.6665 9.38954C8.78477 12.2694 7.16295 16.1746 7.15686 20.2487C7.16363 24.3223 8.78578 28.2269 11.6674 31.1062C14.5491 33.9855 18.455 35.6043 22.5286 35.6077C26.6022 35.6043 30.5082 33.9855 33.3898 31.1062C36.2717 28.2269 37.8935 24.3223 37.9006 20.2487C37.8935 16.1751 36.2717 12.2704 33.3898 9.39117C30.5082 6.51191 26.6022 4.89308 22.5286 4.88969V4.88711Z" fill="white"/>
<path d="M25.0562 33.6462C21.5742 33.6434 18.2355 32.2597 15.7725 29.7986C13.3094 27.3375 11.9231 23.9999 11.9177 20.5179C11.9231 17.036 13.3094 13.6984 15.7725 11.2373C18.2355 8.77612 21.5742 7.39243 25.0562 7.38972C28.5383 7.39175 31.8772 8.77523 34.3406 11.2365C36.8037 13.6978 38.1898 17.0358 38.1945 20.5179C38.1892 23.9999 36.8028 27.3375 34.3397 29.7986C31.8766 32.2597 28.5381 33.6434 25.0562 33.6462ZM25.0562 8.24357C21.8005 8.2456 18.6785 9.53911 16.3754 11.8402C14.0723 14.1414 12.7762 17.2622 12.7715 20.5179C12.7769 23.7732 14.0734 26.8934 16.3764 29.194C18.6794 31.4945 21.8009 32.7877 25.0562 32.7898C28.3114 32.7877 31.4329 31.4945 33.736 29.194C36.0391 26.8934 37.3354 23.7732 37.3409 20.5179C37.336 17.2622 36.04 14.1414 33.7369 11.8402C31.4338 9.53911 28.3118 8.2456 25.0562 8.24357Z" fill="white"/>
<path d="M27.5848 30.4845C25.0121 30.4825 22.5452 29.4601 20.7254 27.6417C18.9055 25.8232 17.8812 23.3572 17.8771 20.7845C17.8805 18.2114 18.9045 15.7446 20.7245 13.9257C22.5444 12.1067 25.0116 11.0839 27.5848 11.0819C30.1579 11.0839 32.6252 12.1067 34.4452 13.9257C36.2652 15.7446 37.2889 18.2114 37.2923 20.7845C37.2883 23.3572 36.264 25.8232 34.4443 27.6417C32.6243 29.4601 30.1575 30.4825 27.5848 30.4845ZM27.5848 11.5947C25.1477 11.5968 22.8109 12.5654 21.0871 14.2883C19.3633 16.0111 18.3933 18.3474 18.3899 20.7845C18.394 23.2212 19.3643 25.5567 21.088 27.279C22.8117 29.0013 25.1481 29.9696 27.5848 29.9717C30.0214 29.9696 32.3578 29.0013 34.0815 27.279C35.8052 25.5567 36.7757 23.2212 36.7797 20.7845C36.7763 18.3474 35.8065 16.0111 34.0825 14.2883C32.3588 12.5654 30.0219 11.5968 27.5848 11.5947Z" fill="white"/>
<path d="M20 38C17.8333 38 15.8167 37.4833 13.95 36.45C12.0833 35.4167 10.7 33.9333 9.8 32H4V29H8.6C8.36667 28.1333 8.25 27.2583 8.25 26.375V23.7H3.95V20.7H8.25C8.25 19.7333 8.25833 18.775 8.275 17.825C8.29167 16.875 8.43333 15.9333 8.7 15H4V12H10C10.4667 11.0667 11.0833 10.25 11.85 9.55C12.6167 8.85 13.4667 8.26667 14.4 7.8L10.55 4L12.55 2L17.25 6.7C18.1833 6.36667 19.125 6.2 20.075 6.2C21.025 6.2 21.9667 6.36667 22.9 6.7L27.6 2L29.6 4L25.8 7.8C26.7333 8.26667 27.5583 8.85833 28.275 9.575C28.9917 10.2917 29.6167 11.1 30.15 12H36.05V15H31.3C31.6 15.9333 31.7417 16.875 31.725 17.825C31.7083 18.775 31.7 19.7333 31.7 20.7H36.05V23.7H31.7C31.7 24.6 31.7083 25.4917 31.725 26.375C31.7417 27.2583 31.6333 28.1333 31.4 29H36.05V32H30.25C29.3833 33.9667 28.0083 35.4583 26.125 36.475C24.2417 37.4917 22.2 38 20 38ZM20 35C22.4 35 24.45 34.1583 26.15 32.475C27.85 30.7917 28.7 28.75 28.7 26.35V18C28.7 15.6 27.85 13.5583 26.15 11.875C24.45 10.1917 22.4 9.35 20 9.35C17.6 9.35 15.55 10.1917 13.85 11.875C12.15 13.5583 11.3 15.6 11.3 18V26.35C11.3 28.75 12.15 30.7917 13.85 32.475C15.55 34.1583 17.6 35 20 35ZM16 28H24V25H16V28ZM16 19.35H24V16.35H16V19.35Z" fill="#C16510" fill-opacity="0.85"/>
</g>
<defs>
<clipPath id="clip0_1_2">
<rect width="40" height="40" fill="white"/>
</clipPath>
</defs>
</svg>
